<?xml version="1.0" encoding="utf-8"?>
<!-- Generator: Adobe Illustrator 24.0.1, SVG Export Plug-In . SVG Version: 6.00 Build 0)  -->
<svg version="1.1" id="Layer_1" xmlns="http://www.w3.org/2000/svg" xmlns:xlink="http://www.w3.org/1999/xlink" x="0px" y="0px"
	 viewBox="0 0 96 96" style="enable-background:new 0 0 96 96;" xml:space="preserve">
<style type="text/css">
	.st0{fill:#68217A;}
	.st1{fill:#953DAC;}
	.st2{fill:#FFFFFF;}
	.st3{fill:#822C98;}
</style>
<g id="surface48709323">
	<path class="st0" d="M45.8,6.6c1.4-0.8,3-0.8,4.4,0c6.7,3.8,26.9,15.1,33.6,18.9c1.4,0.8,2.2,2.2,2.2,3.7c0,7.5,0,30.2,0,37.7
		c0,1.5-0.8,2.9-2.2,3.7c-6.7,3.8-26.9,15.1-33.6,18.9c-1.4,0.8-3,0.8-4.4,0c-6.7-3.8-26.9-15.1-33.6-18.9c-1.4-0.8-2.2-2.2-2.2-3.7
		c0-7.5,0-30.2,0-37.7c0-1.5,0.8-2.9,2.2-3.7C18.9,21.7,39.1,10.3,45.8,6.6z"/>
	<path class="st1" d="M10.6,68.8c-0.5-0.7-0.6-1.4-0.6-2.3c0-7.5,0-30,0-37.5c0-1.5,0.8-2.9,2.2-3.7c6.7-3.7,26.8-15,33.5-18.8
		c1.4-0.8,3.2-0.7,4.5,0c6.7,3.7,26.7,14.9,33.4,18.7c0.5,0.3,1,0.7,1.3,1.2L10.6,68.8z"/>
	<path class="st2" d="M48,20c-15.5,0-28,12.5-28,28s12.5,28,28,28s28-12.5,28-28S63.5,20,48,20z M48,62c-7.7,0-14-6.3-14-14
		s6.3-14,14-14s14,6.3,14,14S55.7,62,48,62z"/>
	<path class="st3" d="M85,26.4c1,1,1,2.4,1,3.6c0,7.6-0.1,29.2,0,36.8c0,0.8-0.3,1.6-0.6,2.3L47.2,48L85,26.4z"/>
	<path class="st2" d="M68,40h2v16h-2V40z M74,40h2v16h-2V40z"/>
	<path class="st2" d="M64,50h16v2H64V50z M64,44h16v2H64V44z"/>
</g>
</svg>
