<?xml version="1.0" encoding="utf-8"?>
<!-- Generator: Adobe Illustrator 24.0.1, SVG Export Plug-In . SVG Version: 6.00 Build 0)  -->
<svg version="1.1" id="Layer_1" xmlns="http://www.w3.org/2000/svg" xmlns:xlink="http://www.w3.org/1999/xlink" x="0px" y="0px"
	 viewBox="0 0 96 96" style="enable-background:new 0 0 96 96;" xml:space="preserve">
<style type="text/css">
	.st0{fill:#CFD8DC;}
	.st1{fill:#B71C1C;}
</style>
<g>
	<path class="st0" d="M42.8,24.8c-3.2-4.9-3.9-11.4-4-14.1c-8.1,1.8-16.1,5-15.7,7.4c0.1,0.3,0.4,0.7,1,1l-1,1.7
		c-1.2-0.7-1.8-1.4-2-2.4c-0.5-2.7,2.4-5.1,9-7.4c4.5-1.6,9.1-2.5,9.3-2.6l1.2-0.2v1.2c0,0.1,0.1,8.6,3.7,14.2L42.8,24.8z"/>
	<path class="st0" d="M46.1,88.2h-0.5c-16,0-33.7-5.1-35.8-13.8c-1.3-5.3,2.9-11.1,12.1-16.8l1,1.7C14.6,64.6,10.6,69.7,11.7,74
		c1.8,7.5,18.7,12.1,33.4,12.2c1.8-2.7,11.2-18.5,5.8-39.7l1.9-0.5c6.1,24.2-6.3,41.7-6.4,41.8L46.1,88.2z"/>
	<path class="st0" d="M17.2,80.9c-1.1,0-1.6-0.1-1.7-0.1c-0.3-0.1-0.6-0.4-0.7-0.7c-0.1-0.3,0-0.7,0.3-1c0.1-0.1,14-14.4,15.9-25.9
		l1.9,0.3C31.3,63.3,21.8,74.7,18,78.8c3.8-0.2,13.3-2,31.6-12.6c-14.3-1.6-16.6-13.3-16.6-13.5l1.9-0.4c0.1,0.5,2.4,12,18,12
		c0,0,0,0,0,0l0,0c0.4,0,0.8,0.3,0.9,0.7c0.1,0.4-0.1,0.9-0.5,1.1C31.6,79.3,21,80.9,17.2,80.9z"/>
	<path class="st0" d="M26.2,85.6c-0.4,0-0.8-0.3-0.9-0.6c-0.2-0.4,0-0.9,0.3-1.2c0.1,0,3.5-2.7,7.2-8.5c-1.4-0.6-2.9-1.4-4.3-2.3
		c-1.7-1.1-3-2.2-4-3.4c-5,1.4-9.6,1.9-13.7,1.5l0.2-2c3.7,0.3,7.8-0.1,12.3-1.3c-3.1-5.4-0.3-10.7-0.2-10.8l1.7,1
		c-0.1,0.2-2.5,4.7,0.5,9.3c4.3-1.3,8.9-3.1,13.6-5.6c1.1-3.7,1.9-7.8,2.4-12.5c0-0.3,0.2-0.6,0.5-0.8c0.3-0.2,0.6-0.2,0.9,0
		c0.1,0,6.4,3,10.9,4.9c0.3,0.1,0.6,0.5,0.6,0.8c0,0.4-0.1,0.7-0.4,0.9c-4.5,3.1-8.9,5.8-13.2,8.1c-1.4,4.4-3.1,8.2-4.8,11.2
		c7.2,2.8,13.5,2.8,13.6,2.8c0.4,0,0.8,0.3,0.9,0.7s-0.1,0.9-0.5,1.1C40.9,84.2,26.8,85.6,26.2,85.6C26.2,85.6,26.2,85.6,26.2,85.6z
		 M34.7,76.2c-2,3.2-4,5.5-5.5,7.1c3.9-0.6,10.7-1.9,16.4-4.3C42.9,78.6,38.9,77.9,34.7,76.2z M26.6,69.1c0.8,0.8,1.7,1.5,2.9,2.3
		c1.4,0.9,2.9,1.6,4.3,2.3c1.5-2.5,2.9-5.6,4.2-9.1C34.1,66.5,30.3,68,26.6,69.1z M43.1,50.9c-0.4,3.5-1,6.8-1.8,9.7
		c3.2-1.8,6.5-3.8,9.9-6.1C48.1,53.2,44.8,51.7,43.1,50.9z"/>
	<path class="st0" d="M32.8,24.5c-0.2,0-0.5-0.1-0.6-0.2c-3.1-2.8-6.8-8.4-7-8.6c-0.3-0.4-0.2-0.9,0.1-1.2c0.3-0.3,0.8-0.4,1.2-0.2
		c0,0,1.8,0.8,14.1,2.9c0.4,0.1,0.6,0.3,0.8,0.7c0.1,0.3,0,0.7-0.2,1c-3.4,3.9-7.8,5.6-7.9,5.7C33,24.4,32.9,24.5,32.8,24.5z
		 M28.3,16.8c1.2,1.7,3,4,4.6,5.5c1-0.5,3.2-1.6,5.3-3.6C33.3,17.8,30.2,17.2,28.3,16.8z"/>
	<path class="st1" d="M40.4,51.1c-0.1,0-0.3,0-0.4-0.1c-0.4-0.2-0.6-0.6-0.6-1c0.6-5.5-7.7-7.7-7.7-7.7c-0.3-0.1-0.6-0.4-0.7-0.7
		s0-0.7,0.3-1c0.4-0.4,10-10.2,22.1-15.6c0.3-0.1,0.7-0.1,1,0.1c0.3,0.2,0.4,0.6,0.3,1c-2.3,11.5-13.1,24.1-13.5,24.6
		C41,50.9,40.7,51.1,40.4,51.1z M33.8,40.8c2.3,0.9,6.4,2.9,7.4,6.7C44,43.9,50,35.6,52.3,27.7C43.7,31.9,36.5,38.3,33.8,40.8z"/>
	<path class="st1" d="M23.3,59l-0.9-1.8c3.7-2,7.9-5.8,11.3-10.1c-2.9,2.1-4.6,3.5-4.7,3.5l-1.2-1.5c0.1-0.1,3.4-2.9,9-6.4
		c1.5-2.5,2.7-5.1,3.3-7.6c0.1-0.4,0.2-0.8,0.3-1.2c-3.8-1.4-7.2-2.2-9.6-2.5c-0.4-0.1-0.7-0.3-0.8-0.7c-0.1-0.3,0-0.7,0.2-1
		c0.2-0.2,4.1-4.5,9.1-6.9c0.4-0.2,0.8-0.1,1.1,0.2c0.1,0.1,2.8,3.2,2.1,9.6c2.3,0.9,4.6,2,6.8,3.3c5.4-2.5,11.5-4.7,18-6.1
		c0.3-0.1,0.7,0.1,0.9,0.3c0.2,0.3,0.3,0.7,0.2,1c-2.5,6.7-9.3,13.8-9.6,14.1c-0.2,0.2-0.5,0.3-0.7,0.3c-0.3,0-0.5-0.2-0.7-0.4
		c-2.2-2.8-5-5.1-8.1-7c-4.2,2-8,4.2-11.1,6.1C34.3,50.4,28.3,56.2,23.3,59z M51.4,37.1c2.5,1.7,4.9,3.6,6.8,5.9
		c1.6-1.8,5.5-6.3,7.7-10.8C60.7,33.3,55.8,35.1,51.4,37.1z M42.3,34.5c-0.1,0.3-0.1,0.7-0.2,1c-0.4,1.7-1.1,3.4-1.9,5.1
		c2.1-1.3,4.5-2.5,7.1-3.8C45.6,35.9,43.9,35.2,42.3,34.5z M33,29.6c2.2,0.4,4.8,1.1,7.7,2.2c0.3-3.7-0.7-5.9-1.3-6.9
		C36.8,26.3,34.4,28.3,33,29.6z"/>
	<path class="st1" d="M33,39.3C33,48,25.9,55,20.8,60.1c-0.9,0.9-3.8,1-3.8,1c0.7-0.8,1.5-1.6,2.4-2.4c4.9-4.8,11.6-11.5,11.6-19.4
		c0-9.4-3.7-13.1-6.6-16c-1.3-1.3-2.4-2.6-3-4.2l0.6-0.3c0.7,0.3,1.4,0.6,2,0.9c0.5,0.7,1.1,1.4,1.8,2.1C28.9,24.9,33,29.1,33,39.3z
		"/>
	<path class="st1" d="M81.5,41.8c0,0-1.2,0.2-1.5,0.2C62.9,44,45.3,49,35.2,53.2c-3.6,1.5-7.4,3.3-10.9,5.4c0,0,0,0-0.1,0
		c-2,1.2-7,3.7-11,5.9c5.8-6.4,16.8-11.3,21.2-13.1c9.9-4.1,26.9-9,43.6-11.1c-2-2.4-6.8-7.4-16.3-11.1c-5.5-2.2-14-3.4-21.4-4.5
		c-11.8-1.7-18.5-2.9-19.2-6.2c-0.1-0.7,0-1.3,0.3-2c0.6,1.1,1.6,1.8,2.2,2.3c0.3,0.2,0.5,0.3,0.6,0.4l0,0
		c2.8,1.5,10.2,2.6,16.5,3.5c7.5,1.1,16,2.4,21.8,4.6c13.4,5.3,18,12.9,18.2,13.2C80.9,40.8,81.5,41.8,81.5,41.8z"/>
</g>
</svg>
