<?xml version="1.0" encoding="utf-8"?>
<!-- Generator: Adobe Illustrator 24.0.1, SVG Export Plug-In . SVG Version: 6.00 Build 0)  -->
<svg version="1.1" id="Layer_1" xmlns="http://www.w3.org/2000/svg" xmlns:xlink="http://www.w3.org/1999/xlink" x="0px" y="0px"
	 viewBox="0 0 96 96" style="enable-background:new 0 0 96 96;" xml:space="preserve">
<style type="text/css">
	.st0{fill:#E65100;}
	.st1{fill:#FF6D00;}
	.st2{fill:#FFFFFF;}
	.st3{fill:#EEEEEE;}
</style>
<path class="st0" d="M82,10H14l6,68l28,8l28-8L82,10L82,10z"/>
<path class="st1" d="M48,16v63.8l22.4-6.4l5-57.4H48z"/>
<path class="st2" d="M48,50v-8h17.2l-1.4,23L48,70.2v-8.4l8.2-2.8l0.6-9C56.8,50,48,50,48,50z M65.8,34l0.6-8H48v8H65.8z"/>
<path class="st3" d="M48,61.8v8.4L32.2,65l-0.8-11h8l0.4,5L48,61.8z M38.2,34H48v-8H29.8l1.4,24H48v-8h-9.2L38.2,34z"/>
</svg>
