<?xml version="1.0" encoding="utf-8"?>
<!-- Generator: Adobe Illustrator 24.0.1, SVG Export Plug-In . SVG Version: 6.00 Build 0)  -->
<svg version="1.1" id="Layer_1" xmlns="http://www.w3.org/2000/svg" xmlns:xlink="http://www.w3.org/1999/xlink" x="0px" y="0px"
	 viewBox="0 0 80 78.2" style="enable-background:new 0 0 80 78.2;" xml:space="preserve">
<style type="text/css">
	.st0{fill:#F9F9F9;}
</style>
<path class="st0" d="M70,39.8c0,13.4-8.8,24.8-21,28.6v-7.6c0-2.6-1.1-4.9-2.8-6.5c7.9-1.4,11.8-6,11.8-14.5c0-3.7-0.8-6.6-2.2-8.9
	c0.7-2.6,1.1-6.2-0.8-9.2c-3.5,0-6,2.1-7.5,3.8c-2.2-0.5-4.7-0.8-7.5-0.8c-2.7,0-5.2,0.3-7.4,0.9c-1.4-1.7-4-3.9-7.6-3.9
	c-2.1,3.4-1.3,7.1-0.5,9.2c-1.6,2.3-2.5,5.2-2.5,8.8c0,8.5,3.9,13.1,11.8,14.5c-1,1-1.8,2.2-2.3,3.5H28c-2.2,0-3-1-4.2-2.5
	s-2.4-2.6-3.9-3c-0.8-0.1-1.3,0.6-0.6,1.1c2.4,1.7,2.5,4.5,3.5,6.3c0.9,1.6,2.6,2.7,4.6,2.7H31v6.1c-12.2-3.8-21-15.2-21-28.6
	c0-16.6,13.4-30,30-30S70,23.2,70,39.8z"/>
</svg>
