<?xml version="1.0" encoding="utf-8"?>
<!-- Generator: Adobe Illustrator 24.0.1, SVG Export Plug-In . SVG Version: 6.00 Build 0)  -->
<svg version="1.1" id="Layer_1" xmlns="http://www.w3.org/2000/svg" xmlns:xlink="http://www.w3.org/1999/xlink" x="0px" y="0px"
	 viewBox="0 0 96 96" style="enable-background:new 0 0 96 96;" xml:space="preserve">
<style type="text/css">
	.st0{fill:#0EAED9;}
</style>
<path class="st0" d="M48,68C22.2,68,2,59.2,2,48s20.2-20,46-20s46,8.8,46,20S73.8,68,48,68z M48,32C22.8,32,6,40.2,6,48
	s16.8,16,42,16s42-8.2,42-16S73.2,32,48,32z"/>
<path class="st0" d="M30.2,89.2c-2,0-3.6-0.4-5.2-1.4c-9.8-5.6-7.2-27.4,5.6-49.8l0,0c6-10.4,13.4-19.2,20.6-24.8
	c7.8-6,14.8-7.8,19.6-5c5,2.8,6.8,9.8,5.6,19.6c-1.2,9.2-5.2,20-11.2,30.4S51.8,77.4,44.6,83C39.4,87,34.4,89.2,30.2,89.2z
	 M65.8,10.8c-3.2,0-7.4,1.8-12,5.4C47,21.6,40,30,34.2,40l0,0C21.6,61.8,20.4,80.6,27,84.4c3.4,2,9,0.2,15.2-4.6
	C49,74.4,56,66,61.8,56s9.6-20.2,10.8-28.8c1-8-0.2-13.6-3.6-15.6C68,11.2,67,10.8,65.8,10.8z"/>
<path class="st0" d="M66,89.2C56,89.2,41.6,77,30.8,58C17.8,35.6,15.2,13.8,25,8.2l0,0c9.8-5.6,27.4,7.4,40.4,29.8
	c6,10.4,10,21.2,11.2,30.4C78,78.2,76,85,71,88C69.4,88.8,67.8,89.2,66,89.2z M27,11.6c-6.6,3.8-5.4,22.6,7.2,44.4
	S62.4,88.2,69,84.4c3.4-2,4.6-7.6,3.6-15.6c-1.2-8.6-5-18.8-10.8-28.8C49.2,18.2,33.6,7.8,27,11.6L27,11.6z"/>
<circle class="st0" cx="48" cy="48" r="8"/>
</svg>
