<?xml version="1.0" encoding="utf-8"?>
<!-- Generator: Adobe Illustrator 24.0.1, SVG Export Plug-In . SVG Version: 6.00 Build 0)  -->
<svg version="1.1" id="Layer_1" xmlns="http://www.w3.org/2000/svg" xmlns:xlink="http://www.w3.org/1999/xlink" x="0px" y="0px"
	 viewBox="0 0 96 96" style="enable-background:new 0 0 96 96;" xml:space="preserve">
<style type="text/css">
	.st0{fill:#F06292;}
</style>
<path class="st0" d="M79.7,52.4c-3.1,0-5.7,0.8-8,1.9c-0.8-1.6-1.6-3.1-1.8-4.1c-0.2-1.2-0.3-2-0.2-3.5c0.2-1.5,1.1-3.6,1-3.7
	c0-0.2-0.2-0.9-2-0.9c-1.8,0-3.3,0.3-3.5,0.8s-0.5,1.5-0.7,2.6c-0.3,1.6-3.5,7.3-5.4,10.3c-0.6-1.2-1.1-2.2-1.2-3
	c-0.2-1.2-0.3-2-0.2-3.5c0.2-1.5,1.1-3.6,1-3.7c0-0.2-0.2-0.9-2-0.9c-1.8,0-3.3,0.3-3.5,0.8c-0.2,0.5-0.4,1.6-0.7,2.6
	c-0.4,1.1-4.7,10.6-5.8,13.1c-0.6,1.3-1.1,2.3-1.4,3c0,0,0,0,0,0s0,0-0.1,0.1c-0.3,0.6-0.5,0.9-0.5,0.9s0,0,0,0
	c-0.2,0.4-0.5,0.8-0.6,0.8c-0.1,0-0.3-1.2,0-2.7c0.6-3.3,2.2-8.5,2.2-8.7c0-0.1,0.3-1-1-1.5c-1.3-0.5-1.7,0.3-1.8,0.3
	c-0.1,0-0.2,0.3-0.2,0.3s1.4-5.8-2.7-5.8c-2.5,0-6,2.8-7.8,5.3c-1.1,0.6-3.4,1.9-5.9,3.2c-1,0.5-1.9,1.1-2.8,1.6
	c-0.1-0.1-0.1-0.1-0.2-0.2c-4.9-5.2-14-9-13.6-16c0.1-2.6,1-9.3,17.5-17.5c13.5-6.7,24.2-4.9,26.1-0.8c2.7,5.8-5.8,16.7-19.7,18.3
	c-5.3,0.6-8.1-1.5-8.8-2.2c-0.7-0.8-0.8-0.8-1.1-0.7c-0.4,0.2-0.2,1,0,1.4c0.4,1.1,2.1,3,5.1,4c2.6,0.8,8.8,1.3,16.4-1.6
	c8.5-3.3,15.1-12.4,13.1-20c-2-7.7-14.8-10.3-27-6c-7.2,2.6-15.1,6.6-20.7,11.9c-6.7,6.3-7.8,11.7-7.3,14
	c1.6,8.1,12.7,13.4,17.2,17.3c-0.2,0.1-0.4,0.2-0.6,0.3c-2.2,1.1-10.7,5.6-12.9,10.3C5.4,75.7,8.2,79.5,10,80
	c5.7,1.6,11.6-1.3,14.8-6c3.2-4.7,2.8-10.9,1.3-13.7c0,0,0-0.1-0.1-0.1c0.6-0.3,1.2-0.7,1.8-1c1.1-0.7,2.3-1.3,3.2-1.8
	c-0.5,1.5-0.9,3.3-1.1,5.9c-0.2,3,1,6.9,2.6,8.5c0.7,0.7,1.6,0.7,2.1,0.7c1.9,0,2.8-1.6,3.7-3.4c1.2-2.3,2.2-4.9,2.2-4.9
	s-1.3,7.2,2.2,7.2c1.3,0,2.6-1.7,3.2-2.5c0,0,0,0,0,0s0-0.1,0.1-0.2c0.1-0.2,0.2-0.3,0.2-0.3s0,0,0,0c0.5-0.9,1.7-2.9,3.4-6.3
	C51.9,57.5,54,52,54,52s0.2,1.3,0.8,3.5c0.4,1.3,1.2,2.7,1.8,4.1c-0.5,0.7-0.8,1.1-0.8,1.1s0,0,0,0c-0.4,0.5-0.9,1.1-1.4,1.7
	c-1.8,2.1-3.8,4.5-4.1,5.2c-0.3,0.8-0.3,1.4,0.4,1.9c0.5,0.3,1.3,0.4,2.2,0.3c1.6-0.1,2.7-0.5,3.2-0.7c0.9-0.3,1.8-0.8,2.8-1.5
	c1.7-1.3,2.8-3.1,2.7-5.5c-0.1-1.3-0.5-2.6-1-3.9c0.2-0.2,0.3-0.5,0.5-0.7c2.7-4,4.8-8.3,4.8-8.3s0.2,1.3,0.8,3.5
	c0.3,1.1,1,2.3,1.6,3.5c-2.6,2.1-4.1,4.5-4.7,6.1c-1,2.9-0.2,4.2,1.3,4.5c0.7,0.1,1.6-0.2,2.4-0.5c0.9-0.3,2-0.8,3-1.5
	c1.7-1.3,3.4-3,3.3-5.4c0-1.1-0.3-2.2-0.7-3.2c2.2-0.9,5-1.4,8.5-1c7.7,0.9,9.2,5.7,8.9,7.7c-0.3,2-1.9,3.1-2.4,3.4
	c-0.5,0.3-0.7,0.4-0.7,0.7c0.1,0.4,0.3,0.3,0.8,0.3c0.6-0.1,4-1.6,4.2-5.3C92.2,57.5,87.7,52.4,79.7,52.4z M20.7,72.3
	c-2.5,2.8-6.1,3.8-7.6,2.9c-1.6-0.9-1-5,2.1-8c1.9-1.8,4.3-3.4,6-4.4c0.4-0.2,0.9-0.5,1.6-0.9c0.1-0.1,0.2-0.1,0.2-0.1l0,0
	c0.1-0.1,0.3-0.2,0.4-0.2C24.5,65.7,23.4,69.4,20.7,72.3z M39.2,59.8c-0.9,2.2-2.7,7.7-3.9,7.4c-1-0.3-1.6-4.4-0.2-8.6
	c0.7-2.1,2.1-4.6,3-5.5c1.4-1.5,2.9-2.1,3.3-1.4C41.9,52.4,39.8,58.4,39.2,59.8z M54.5,67c-0.4,0.2-0.7,0.3-0.9,0.2
	c-0.1-0.1,0.2-0.3,0.2-0.3s1.9-2.1,2.7-3c0.4-0.5,0.9-1.2,1.5-1.9c0,0.1,0,0.1,0,0.2C57.9,64.7,55.5,66.4,54.5,67z M66.2,64.4
	c-0.3-0.2-0.2-0.8,0.7-2.8c0.4-0.8,1.2-2.1,2.6-3.4c0.2,0.5,0.3,1,0.3,1.5C69.8,62.7,67.6,63.9,66.2,64.4z"/>
</svg>
