<?xml version="1.0" encoding="utf-8"?>
<!-- Generator: Adobe Illustrator 24.0.1, SVG Export Plug-In . SVG Version: 6.00 Build 0)  -->
<svg version="1.1" id="Layer_1" xmlns="http://www.w3.org/2000/svg" xmlns:xlink="http://www.w3.org/1999/xlink" x="0px" y="0px"
	 viewBox="0 0 96 96" style="enable-background:new 0 0 96 96;" xml:space="preserve">
<style type="text/css">
	.st0{fill:#0277BD;}
	.st1{fill:#039BE5;}
	.st2{fill:#FFFFFF;}
	.st3{fill:#EEEEEE;}
</style>
<path class="st0" d="M82,10H14l6,68l28,8l28-8L82,10L82,10z"/>
<path class="st1" d="M48,16v63.8l22.4-6.4l5-57.4H48z"/>
<path class="st2" d="M66.2,26H48v8h9.8l-0.6,8H48v8h8.8l-0.6,9L48,61.8v8.4L63.8,65l1.4-23l0,0L66.2,26z"/>
<path class="st3" d="M48,26v8H30.2l-0.6-8H48z M38.8,42l0.4,8H48v-8H38.8z M39.6,54h-8l0.6,11L48,70.2v-8.4L39.8,59L39.6,54z"/>
</svg>
