<?xml version="1.0" encoding="utf-8"?>
<!-- Generator: Adobe Illustrator 24.0.1, SVG Export Plug-In . SVG Version: 6.00 Build 0)  -->
<svg version="1.1" id="b7c7232a-1587-4d3b-a231-6a0b0f3ca05b"
	 xmlns="http://www.w3.org/2000/svg" xmlns:xlink="http://www.w3.org/1999/xlink" x="0px" y="0px" viewBox="0 0 887 630.6"
	 style="enable-background:new 0 0 887 630.6;" xml:space="preserve">
<style type="text/css">
	.st0{fill:#9EBF95;}
	.st1{fill:#6A8064;}
	.st2{fill:#E6E6E6;}
	.st3{fill:#2F2E41;}
	.st4{fill:#A0616A;}
	.st5{fill:#C8A3A1;}
	.st6{fill:#C2789F;}
	.st7{fill:#F9A826;}
	.st8{fill:#FFFFFF;}
	.st9{fill:#EEFFE9;}
</style>
<title>personal_opinions</title>
<path class="st0" d="M115.1,582.4l-2.3-9c-4-1.7-8.1-3.2-12.3-4.4l-0.3,4.2l-1.2-4.6c-5.2-1.5-8.7-2.1-8.7-2.1s4.8,18.2,14.8,32.1
	l11.7,2.1l-9.1,1.3c1.3,1.5,2.6,3,4.1,4.3c14.6,13.5,30.8,19.7,36.3,13.9s-1.9-21.6-16.5-35.1c-4.7-4.2-10.1-7.6-15.9-10.2
	L115.1,582.4z"/>
<path class="st0" d="M136.7,572.7l2.7-8.8c-2.6-3.5-5.3-6.9-8.3-10.2l-2.4,3.4l1.4-4.5c-3.7-4-6.4-6.3-6.4-6.3s-5.3,18-3.9,35.1
	l8.9,7.8l-8.4-3.6c0.3,2,0.7,3.9,1.3,5.8c5.5,19.1,16.2,32.8,23.9,30.6s9.5-19.5,4-38.6c-1.9-6-4.7-11.8-8.3-16.9L136.7,572.7z"/>
<path class="st0" d="M299,580.3l-2.1-8.4c-3.8-1.6-7.7-3-11.6-4.2l-0.3,3.9l-1.1-4.3c-4.9-1.4-8.2-2-8.2-2s4.5,17.1,13.9,30.1
	l11,1.9l-8.5,1.2c1.2,1.4,2.5,2.8,3.8,4c13.7,12.7,29,18.5,34.1,13c5.1-5.5-1.8-20.3-15.5-33c-4.5-3.9-9.5-7.2-14.9-9.6L299,580.3z"
	/>
<path class="st0" d="M319.3,571.1l2.5-8.3c-2.4-3.3-5-6.5-7.8-9.6l-2.3,3.2l1.3-4.3c-3.5-3.7-6-6-6-6s-5,16.9-3.7,33l8.4,7.3
	l-7.9-3.4c0.3,1.8,0.7,3.6,1.2,5.4c5.2,18,15.2,30.8,22.4,28.8s8.9-18.3,3.8-36.3c-1.8-5.7-4.4-11-7.8-15.9L319.3,571.1z"/>
<path class="st1" d="M657.3,584.8l-1.1-4.2c-1.9-0.8-3.9-1.5-5.8-2.1l-0.1,2l-0.6-2.2c-2.5-0.7-4.1-1-4.1-1c1.5,5.4,3.9,10.5,7,15.2
	l5.5,1l-4.3,0.6c0.6,0.7,1.2,1.4,1.9,2c6.9,6.4,14.6,9.3,17.2,6.6s-0.9-10.2-7.8-16.6c-2.2-2-4.8-3.6-7.5-4.8L657.3,584.8z"/>
<path class="st1" d="M667.6,580.2l1.3-4.2c-1.2-1.7-2.5-3.3-3.9-4.8l-1.1,1.6l0.7-2.1c-1.7-1.9-3-3-3-3c-1.5,5.4-2.1,11-1.8,16.6
	l4.2,3.7l-4-1.7c0.1,0.9,0.3,1.8,0.6,2.7c2.6,9.1,7.7,15.5,11.3,14.5s4.5-9.2,1.9-18.3c-0.9-2.9-2.2-5.6-3.9-8L667.6,580.2z"/>
<path class="st1" d="M750,577.5l-1.4-5.6c-2.5-1.1-5.1-2-7.7-2.8l-0.2,2.6l-0.7-2.9c-3.2-0.9-5.4-1.3-5.4-1.3s3,11.3,9.2,20l7.3,1.3
	l-5.7,0.8c0.8,0.9,1.6,1.8,2.5,2.7c9.1,8.4,19.2,12.3,22.6,8.6c3.4-3.7-1.2-13.5-10.3-21.9c-3-2.6-6.3-4.8-9.9-6.4L750,577.5z"/>
<path class="st2" d="M763.5,571.4l1.7-5.5c-1.6-2.2-3.3-4.3-5.2-6.3l-1.5,2.1l0.9-2.8c-2.3-2.5-4-4-4-4s-3.3,11.2-2.4,21.9l5.6,4.9
	l-5.3-2.2c0.2,1.2,0.4,2.4,0.8,3.6c3.4,11.9,10.1,20.4,14.9,19.1s5.9-12.1,2.5-24.1c-1.2-3.8-2.9-7.3-5.2-10.6L763.5,571.4z"/>
<path class="st0" d="M574.2,555.2l6.4-7.4c-1-4.6-2.2-9-3.7-13.5l-3.8,2.3l3.3-3.8c-1.9-5.4-3.5-8.9-3.5-8.9s-12.9,15.3-18.9,32.5
	l5.3,11.4l-6.7-7.1c-0.6,2-1,4.1-1.3,6.2c-2.9,21,1.6,38.9,10,40.1c8.5,1.2,17.7-14.9,20.6-35.9c0.8-6.7,0.5-13.5-0.8-20.1
	L574.2,555.2z"/>
<path class="st0" d="M595.9,568.1l9.4-3.1c1.5-4.4,2.8-8.9,3.8-13.4l-4.4,0l4.8-1.6c1.2-5.6,1.6-9.4,1.6-9.4s-19,6.4-33,18
	l-1.3,12.6l-2-9.5c-1.5,1.4-2.9,3-4.3,4.6c-13.3,16.5-18.8,34.2-12.1,39.5s22.8-3.6,36.1-20.1c4.1-5.3,7.4-11.3,9.7-17.6
	L595.9,568.1z"/>
<path class="st1" d="M682.5,584.8l2.9-3.3c-0.4-2-1-4-1.6-6l-1.7,1l1.5-1.7c-0.8-2.4-1.5-4-1.5-4c-3.6,4.3-6.4,9.2-8.4,14.4l2.4,5.1
	l-3-3.2c-0.2,0.9-0.4,1.8-0.6,2.7c-1.3,9.3,0.7,17.3,4.5,17.8c3.8,0.5,7.9-6.6,9.1-16c0.3-3,0.2-6-0.4-8.9L682.5,584.8z"/>
<path class="st1" d="M692.2,590.6l4.2-1.4c0.7-2,1.2-3.9,1.7-6l-2,0l2.1-0.7c0.5-2.5,0.7-4.2,0.7-4.2c-5.3,1.9-10.2,4.6-14.7,8
	l-0.6,5.6l-0.9-4.2c-0.7,0.6-1.3,1.3-1.9,2.1c-5.9,7.3-8.3,15.2-5.4,17.6s10.1-1.6,16.1-8.9c1.8-2.4,3.3-5,4.3-7.8L692.2,590.6z"/>
<path class="st1" d="M0.5,630.6c0,0,698.5-72,886.5,0H0.5z"/>
<path class="st0" d="M887,191.3C885.7,85.3,831.6,0,765.1,0c-40,0-75.5,30.8-97.7,78.4l26.2,65.7l-36.2-40.5
	c-9.1,27.4-14.3,58.6-14.3,91.8c-0.1,25.2,3,50.2,9.2,74.6l70.1-11.3l-62.8,35.1c20.4,56,57.8,94.3,100.9,96.9l-8.3,225.8l25.7,0.9
	l-5.5-227c61.3-5.8,110.5-84.2,114.4-182.3l-42.4-23.7L887,191.3z"/>
<polygon class="st3" points="442.8,184.9 476.6,190.8 487.8,134.4 460.6,122.5 "/>
<polygon class="st3" points="483.4,193.9 517.2,199.8 528.4,143.4 501.2,131.5 "/>
<polygon class="st4" points="523.6,556.8 523.6,580.3 540.8,580.3 539,557.7 "/>
<polygon class="st4" points="434.3,556.8 434.3,580.3 417.2,580.3 419,557.7 "/>
<path class="st3" d="M440.7,339.4L426.9,423c-3.5,21.3-5.6,42.7-6.3,64.3l-2.5,76.8l18-1.8l13.5-87.5c0,0,35.2-129.9,47.8-103.7
	c12.6,26.2,18.9,109.1,18.9,109.1l5.4,81.2h19.8l1.8-106.4c0,0,10.8-148.8-16.2-161.4L440.7,339.4z"/>
<path class="st3" d="M542.6,576.7c0,0-19.8-13.5-21.6-2.7l-7.2,26.2c0,0-10.8,20.7,12.6,20.7s16.2-15.3,16.2-15.3V576.7z"/>
<path class="st3" d="M415.4,572.8c0,0,19.8-13.5,21.6-2.7l7.2,26.2c0,0,10.8,20.7-12.6,20.7s-16.2-15.3-16.2-15.3V572.8z"/>
<ellipse transform="matrix(0.1735 -0.9848 0.9848 0.1735 260.9182 604.663)" class="st5" cx="490.7" cy="146.9" rx="26.2" ry="26.2"/>
<path class="st5" d="M474,158.2c0,0,2.7,25.3-10.8,30.7l22.5,27.1l29.8-20.7c0,0-21.6-4.5-18-17.1s3.6-14.4,3.6-14.4L474,158.2z"/>
<path class="st6" d="M468.2,185.7c0,0,18.9,14.4,22.5,13.5s10.8-10.8,10.8-10.8s26.6,0.5,37.4,7.7s-10.4,51.9-10.4,51.9
	s5.9,20.3-1.4,25.7s1.8,18.9,1.8,18.9s-18,33.4-65.8,46c0,0-29.8,11.7-28.9,5.4s9.9-78.5,9.9-78.5v-74.9L468.2,185.7z"/>
<path class="st3" d="M468.1,115.8c0,0-13.7,4.6-14.4,22.5c-0.1,2.9,0.2,5.7,0.9,8.5c0.8,3.3,1.3,10.3-4.7,19.4
	c-4,6.1-7.6,12.3-10.9,18.8l0,0.1l15,1.9l3.2-24.9c1.5-12.1,4.9-23.8,9.8-34.9l0.1-0.2c0,0,6.6,12.2,19.7,12.2l-4.7-4.7
	c0,0,20.6,8.4,28.1,8.4c0,0,5.6,3.8,0,9.4s-16.9,18.8-10.3,29.1s0.9,13.1,0.9,13.1l10.3-5.6l4.7-2.8v3.8l24.4-2.8
	c0,0,6.6-0.9-7.5-16.9c0,0-3.7-6.2-2.1-11.5c1.3-4.1,1.7-8.4,1-12.6C528.6,128.5,516.3,93.5,468.1,115.8z"/>
<polygon class="st7" points="365.6,341.7 611,341.7 611,477.8 579.9,477.8 579.9,515.2 546.3,477.8 365.6,477.8 "/>
<rect x="405.8" y="381.7" class="st8" width="165" height="7.4"/>
<rect x="405.8" y="406" class="st8" width="165" height="7.4"/>
<rect x="405.8" y="430.4" class="st8" width="165" height="7.4"/>
<path class="st5" d="M425.3,262.8l2.7,19.8l19.8,55c0,0,4.5,42.4,15.3,37s-1.8-43.3-1.8-43.3l-16.2-51.4l0.9-18L425.3,262.8z"/>
<path class="st6" d="M455.1,192.4l-8.1-2.7l-3.6,1.8c0,0-12.6,0.9-14.4,9.9s-8.1,64.9-8.1,64.9l33.4,1.8L455.1,192.4z"/>
<path class="st5" d="M545.7,262.8l-2.7,19.8l-19.8,55c0,0-4.5,42.4-15.3,37s1.8-43.3,1.8-43.3l16.2-51.4l-0.9-18L545.7,262.8z"/>
<path class="st6" d="M516,192.4l4.3-1.4c2.4-0.8,5.1-0.6,7.4,0.5l0,0c0,0,12.6,0.9,14.4,9.9s8.1,64.9,8.1,64.9l-33.4,1.8L516,192.4z
	"/>
<polygon class="st7" points="332.9,17.3 0,17.3 0,201.9 42.3,201.9 42.3,252.6 87.8,201.9 332.9,201.9 "/>
<rect x="54.6" y="71.5" class="st8" width="223.7" height="10"/>
<rect x="54.6" y="104.6" class="st8" width="223.7" height="10"/>
<rect x="54.6" y="137.7" class="st8" width="223.7" height="10"/>
<circle class="st9" cx="36" cy="267.4" r="9"/>
</svg>
