<?xml version="1.0" standalone="no"?><svg xmlns="http://www.w3.org/2000/svg" viewBox="0 0 1440 320"><path fill="#3f3d56" fill-opacity="1" d="M0,256L0,192L62.6,192L62.6,256L125.2,256L125.2,160L187.8,160L187.8,32L250.4,32L250.4,0L313,0L313,160L375.7,160L375.7,160L438.3,160L438.3,0L500.9,0L500.9,96L563.5,96L563.5,32L626.1,32L626.1,0L688.7,0L688.7,224L751.3,224L751.3,160L813.9,160L813.9,256L876.5,256L876.5,64L939.1,64L939.1,256L1001.7,256L1001.7,96L1064.3,96L1064.3,192L1127,192L1127,224L1189.6,224L1189.6,160L1252.2,160L1252.2,128L1314.8,128L1314.8,224L1377.4,224L1377.4,0L1440,0L1440,320L1377.4,320L1377.4,320L1314.8,320L1314.8,320L1252.2,320L1252.2,320L1189.6,320L1189.6,320L1127,320L1127,320L1064.3,320L1064.3,320L1001.7,320L1001.7,320L939.1,320L939.1,320L876.5,320L876.5,320L813.9,320L813.9,320L751.3,320L751.3,320L688.7,320L688.7,320L626.1,320L626.1,320L563.5,320L563.5,320L500.9,320L500.9,320L438.3,320L438.3,320L375.7,320L375.7,320L313,320L313,320L250.4,320L250.4,320L187.8,320L187.8,320L125.2,320L125.2,320L62.6,320L62.6,320L0,320L0,320Z"></path></svg>