<?xml version="1.0" standalone="no"?><svg xmlns="http://www.w3.org/2000/svg" viewBox="0 0 1440 320"><path fill="#efa649" fill-opacity="1" d="M0,192L6.3,197.3C12.6,203,25,213,38,197.3C50.5,181,63,139,76,122.7C88.4,107,101,117,114,112C126.3,107,139,85,152,106.7C164.2,128,177,192,189,234.7C202.1,277,215,299,227,277.3C240,256,253,192,265,144C277.9,96,291,64,303,80C315.8,96,328,160,341,165.3C353.7,171,366,117,379,80C391.6,43,404,21,417,21.3C429.5,21,442,43,455,74.7C467.4,107,480,149,493,192C505.3,235,518,277,531,266.7C543.2,256,556,192,568,165.3C581.1,139,594,149,606,144C618.9,139,632,117,644,128C656.8,139,669,181,682,186.7C694.7,192,707,160,720,170.7C732.6,181,745,235,758,218.7C770.5,203,783,117,796,74.7C808.4,32,821,32,834,37.3C846.3,43,859,53,872,64C884.2,75,897,85,909,106.7C922.1,128,935,160,947,192C960,224,973,256,985,250.7C997.9,245,1011,203,1023,197.3C1035.8,192,1048,224,1061,234.7C1073.7,245,1086,235,1099,208C1111.6,181,1124,139,1137,138.7C1149.5,139,1162,181,1175,170.7C1187.4,160,1200,96,1213,64C1225.3,32,1238,32,1251,42.7C1263.2,53,1276,75,1288,117.3C1301.1,160,1314,224,1326,234.7C1338.9,245,1352,203,1364,176C1376.8,149,1389,139,1402,144C1414.7,149,1427,171,1434,181.3L1440,192L1440,0L1433.7,0C1427.4,0,1415,0,1402,0C1389.5,0,1377,0,1364,0C1351.6,0,1339,0,1326,0C1313.7,0,1301,0,1288,0C1275.8,0,1263,0,1251,0C1237.9,0,1225,0,1213,0C1200,0,1187,0,1175,0C1162.1,0,1149,0,1137,0C1124.2,0,1112,0,1099,0C1086.3,0,1074,0,1061,0C1048.4,0,1036,0,1023,0C1010.5,0,998,0,985,0C972.6,0,960,0,947,0C934.7,0,922,0,909,0C896.8,0,884,0,872,0C858.9,0,846,0,834,0C821.1,0,808,0,796,0C783.2,0,771,0,758,0C745.3,0,733,0,720,0C707.4,0,695,0,682,0C669.5,0,657,0,644,0C631.6,0,619,0,606,0C593.7,0,581,0,568,0C555.8,0,543,0,531,0C517.9,0,505,0,493,0C480,0,467,0,455,0C442.1,0,429,0,417,0C404.2,0,392,0,379,0C366.3,0,354,0,341,0C328.4,0,316,0,303,0C290.5,0,278,0,265,0C252.6,0,240,0,227,0C214.7,0,202,0,189,0C176.8,0,164,0,152,0C138.9,0,126,0,114,0C101.1,0,88,0,76,0C63.2,0,51,0,38,0C25.3,0,13,0,6,0L0,0Z"></path></svg>