<?xml version="1.0" standalone="no"?><svg xmlns="http://www.w3.org/2000/svg" viewBox="0 0 1440 320"><path fill="#252734" fill-opacity="1" d="M0,128L18.5,138.7C36.9,149,74,171,111,165.3C147.7,160,185,128,222,106.7C258.5,85,295,75,332,69.3C369.2,64,406,64,443,90.7C480,117,517,171,554,170.7C590.8,171,628,117,665,117.3C701.5,117,738,171,775,197.3C812.3,224,849,224,886,218.7C923.1,213,960,203,997,181.3C1033.8,160,1071,128,1108,122.7C1144.6,117,1182,139,1218,149.3C1255.4,160,1292,160,1329,144C1366.2,128,1403,96,1422,80L1440,64L1440,320L1421.5,320C1403.1,320,1366,320,1329,320C1292.3,320,1255,320,1218,320C1181.5,320,1145,320,1108,320C1070.8,320,1034,320,997,320C960,320,923,320,886,320C849.2,320,812,320,775,320C738.5,320,702,320,665,320C627.7,320,591,320,554,320C516.9,320,480,320,443,320C406.2,320,369,320,332,320C295.4,320,258,320,222,320C184.6,320,148,320,111,320C73.8,320,37,320,18,320L0,320Z"></path></svg>